# This file uses centimeters as units for non-parametric coordinates.

mtllib RockB.mtl
g default
v -39.875362 5.275855 44.326439
v -38.714279 25.806446 42.181664
v 45.866299 31.099834 -40.041389
v 32.713123 31.848221 -15.309658
v 44.574142 0.776647 -37.647324
v 32.713123 0.000000 -15.309658
v -42.762016 32.041969 5.956348
v 3.803786 32.558670 11.556834
v -42.744541 30.700226 21.140347
v -19.261269 30.520325 28.425198
v -10.076412 1.096651 23.193645
v -45.199684 -0.150948 16.874695
v -43.924240 27.002277 40.210495
v -45.304932 3.867824 41.095772
v 47.702267 24.665775 -44.148407
v 15.723404 -0.875846 -44.537506
v 41.276718 32.256699 -44.518585
v 42.628956 31.462860 -34.078674
v -45.702271 19.474239 42.267570
v -40.347733 17.153854 44.585838
v -43.605751 31.872883 -35.446548
v -45.013641 15.522385 -43.421288
v -36.483673 32.147293 -44.585842
v -45.351700 -0.145105 -30.570351
v -44.822906 5.670238 -44.236794
v -40.191483 -0.066996 -44.259796
vt 0.609116 0.033452
vt 0.622257 0.089090
vt 0.587741 0.104223
vt 0.572475 0.050554
vt 0.785120 0.737261
vt 0.974737 0.737261
vt 0.787407 0.863648
vt 0.970115 0.887840
vt 0.789590 0.904031
vt 0.827879 0.930820
vt 0.276738 0.249450
vt 0.410493 0.320472
vt 0.236334 0.421668
vt 0.429400 0.023342
vt 0.366871 0.198740
vt 0.259665 0.012166
vt 0.768947 0.936892
vt 0.639995 0.533219
vt 0.916973 0.499480
vt 0.916757 0.589832
vt 0.777467 0.633449
vt 0.925043 0.704684
vt 0.893988 0.717877
vt 0.601486 0.784709
vt 0.639690 0.575577
vt 0.768125 0.753203
vt 0.747696 0.785921
vt 0.026374 0.205100
vt 0.026235 0.016807
vt 0.584676 0.175009
vt 0.222782 0.996380
vt 0.079202 0.971883
vt 0.197893 0.812276
vt 0.071745 0.879327
vt 0.084599 0.833671
vt 0.288098 0.804173
vt 0.416706 0.198776
vt 0.408646 0.261130
vt 0.388851 0.225825
vt 0.039367 0.791401
vt 0.029260 0.614944
vt 0.187494 0.800349
vt 0.231458 0.760631
vt 0.215387 0.297739
vt 0.622873 0.184017
vt 0.880134 0.198559
vt 0.922604 0.253030
vt 0.467732 0.373027
vt 0.582727 0.902909
vt 0.534985 0.805172
vt 0.022949 0.281891
vt 0.056125 0.253209
vt 0.114768 0.250148
vt 0.319181 0.785049
vt 0.237847 0.754243
vt 0.231800 0.797540
vt 0.603001 0.793181
vt 0.506230 0.996345
vt 0.587677 0.961652
vn -0.267982 0.915761 0.299277
vn -0.965726 0.062313 0.251975
vn 0.265802 0.039506 0.963218
vn 0.094921 0.854373 0.510918
vn 0.431379 0.799224 0.418513
vn 0.586834 -0.573055 0.572044
vn 0.221198 0.966607 0.129393
vn 0.586834 -0.573055 0.572044
vn 0.707119 -0.645418 -0.288821
vn 0.221198 0.966607 0.129393
vn 0.221198 0.966607 0.129393
vn 0.707119 -0.645418 -0.288821
vn 0.913875 0.241760 0.326167
vn 0.913875 0.241760 0.326167
vn 0.707119 -0.645418 -0.288821
vn 0.422403 -0.140572 -0.895441
vn 0.707119 -0.645418 -0.288821
vn 0.586834 -0.573055 0.572044
vn 0.018244 -0.669772 -0.742343
vn 0.310002 0.782634 0.539799
vn 0.417169 -0.743919 0.522068
vn 0.450378 0.731585 0.511804
vn 0.422403 -0.140572 -0.895441
vn 0.016297 0.821434 -0.570070
vn 0.913875 0.241760 0.326167
vn 0.450378 0.731585 0.511804
vn -0.498670 0.866316 0.028714
vn -0.429243 0.897473 0.101453
vn 0.310002 0.782634 0.539799
vn 0.310002 0.782634 0.539799
vn -0.429243 0.897473 0.101453
vn -0.267982 0.915761 0.299277
vn 0.094921 0.854373 0.510918
vn -0.445007 -0.893758 0.056262
vn 0.417169 -0.743919 0.522068
vn 0.224055 -0.764682 0.604202
vn -0.436085 -0.869984 0.230126
vn 0.450378 0.731585 0.511804
vn 0.417169 -0.743919 0.522068
vn 0.586834 -0.573055 0.572044
vn 0.431379 0.799224 0.418513
vn 0.417169 -0.743919 0.522068
vn 0.310002 0.782634 0.539799
vn 0.224055 -0.764682 0.604202
vn 0.224055 -0.764682 0.604202
vn 0.310002 0.782634 0.539799
vn 0.265802 0.039506 0.963218
vn 0.310002 0.782634 0.539799
vn 0.094921 0.854373 0.510918
vn 0.265802 0.039506 0.963218
vn -0.445007 -0.893758 0.056262
vn -0.436085 -0.869984 0.230126
vn -0.429243 0.897473 0.101453
vn -0.436085 -0.869984 0.230126
vn -0.965726 0.062313 0.251975
vn -0.429243 0.897473 0.101453
vn -0.429243 0.897473 0.101453
vn -0.965726 0.062313 0.251975
vn -0.267982 0.915761 0.299277
vn -0.498670 0.866316 0.028714
vn -0.445007 -0.893758 0.056262
vn -0.429243 0.897473 0.101453
vn 0.016297 0.821434 -0.570070
vn 0.221198 0.966607 0.129393
vn 0.913875 0.241760 0.326167
vn 0.707119 -0.645418 -0.288821
vn 0.018244 -0.669772 -0.742343
vn 0.422403 -0.140572 -0.895441
vn 0.422403 -0.140572 -0.895441
vn 0.018244 -0.669772 -0.742343
vn 0.016297 0.821434 -0.570070
vn 0.018244 -0.669772 -0.742343
vn -0.024353 0.843887 -0.535968
vn 0.016297 0.821434 -0.570070
vn -0.445007 -0.893758 0.056262
vn 0.018244 -0.669772 -0.742343
vn 0.417169 -0.743919 0.522068
vn 0.018244 -0.669772 -0.742343
vn 0.586834 -0.573055 0.572044
vn 0.417169 -0.743919 0.522068
vn 0.265802 0.039506 0.963218
vn -0.965726 0.062313 0.251975
vn -0.436085 -0.869984 0.230126
vn 0.224055 -0.764682 0.604202
vn -0.024353 0.843887 -0.535968
vn -0.203200 0.978850 -0.023721
vn 0.450378 0.731585 0.511804
vn 0.431379 0.799224 0.418513
vn -0.024353 0.843887 -0.535968
vn 0.431379 0.799224 0.418513
vn 0.221198 0.966607 0.129393
vn 0.016297 0.821434 -0.570070
vn -0.477106 0.022607 -0.878555
vn -0.498670 0.866316 0.028714
vn -0.203200 0.978850 -0.023721
vn -0.042245 -0.318853 -0.946862
vn -0.413642 -0.005147 -0.910425
vn -0.477106 0.022607 -0.878555
vn -0.024353 0.843887 -0.535968
vn 0.018244 -0.669772 -0.742343
vn -0.514325 -0.857586 0.003930
vn 0.018244 -0.669772 -0.742343
vn -0.445007 -0.893758 0.056262
vn -0.042245 -0.318853 -0.946862
vn -0.514325 -0.857586 0.003930
vn -0.413642 -0.005147 -0.910425
vn -0.024353 0.843887 -0.535968
vn -0.477106 0.022607 -0.878555
vn -0.203200 0.978850 -0.023721
vn 0.450378 0.731585 0.511804
vn -0.203200 0.978850 -0.023721
vn -0.498670 0.866316 0.028714
vn -0.498670 0.866316 0.028714
vn -0.514325 -0.857586 0.003930
vn -0.445007 -0.893758 0.056262
vn -0.413642 -0.005147 -0.910425
vn -0.514325 -0.857586 0.003930
vn -0.498670 0.866316 0.028714
vn -0.477106 0.022607 -0.878555
vn -0.514325 -0.857586 0.003930
vn -0.042245 -0.318853 -0.946862
vn 0.018244 -0.669772 -0.742343
s off
g RockB_mesh
usemtl initialShadingGroup
f 13/1/1 19/2/2 20/3/3 2/4/4
f 4/5/5 6/6/6 18/7/7
f 6/6/8 5/8/9 18/7/10
f 18/7/11 5/8/12 3/9/13
f 3/9/14 5/8/15 15/10/16
f 5/11/17 6/12/18 16/13/19
f 10/14/20 11/15/21 8/16/22
f 15/10/23 17/17/24 3/9/25
f 8/18/26 7/19/27 9/20/28 10/21/29
f 10/21/30 9/20/31 13/22/32 2/23/33
f 12/24/34 11/25/35 1/26/36 14/27/37
f 8/16/38 11/15/39 6/28/40 4/29/41
f 11/15/42 10/14/43 1/30/44
f 1/30/45 10/14/46 20/3/47
f 10/14/48 2/4/49 20/3/50
f 12/31/51 14/32/52 9/33/53
f 14/32/54 19/34/55 9/33/56
f 9/33/57 19/34/58 13/35/59
f 7/36/60 12/31/61 9/33/62
f 17/37/63 18/38/64 3/39/65
f 5/40/66 16/41/67 15/42/68
f 15/42/69 16/41/70 17/43/71
f 16/41/72 23/44/73 17/43/74
f 12/24/75 16/13/76 11/25/77
f 16/13/78 6/12/79 11/25/80
f 20/3/81 19/2/82 14/45/83 1/30/84
f 23/46/85 21/47/86 8/18/87 4/48/88
f 23/46/89 4/48/90 18/38/91 17/37/92
f 22/49/93 7/36/94 21/50/95
f 26/51/96 25/52/97 22/53/98 23/44/99 16/41/100
f 24/54/101 16/13/102 12/24/103
f 26/55/104 24/54/105 25/56/106
f 23/57/107 22/49/108 21/50/109
f 8/18/110 21/47/111 7/19/112
f 7/36/113 24/58/114 12/31/115
f 25/59/116 24/58/117 7/36/118 22/49/119
f 24/54/120 26/55/121 16/13/122
