# This file uses centimeters as units for non-parametric coordinates.

mtllib RockE.mtl
g default
v -11.831879 -4.166780 0.501892
v -0.654510 -3.672793 11.833067
v -8.069777 3.076901 -1.147948
v -2.982679 4.792686 4.078979
v 1.500824 2.631993 -9.946537
v 10.074345 5.122905 -0.341371
v 2.632051 -5.821586 -11.833067
v 13.831907 -5.163784 0.083649
v 4.359711 5.945048 4.966798
v -6.918549 2.711494 -5.002775
v -9.007534 -4.954743 -5.233965
v 7.466556 -5.038576 7.205963
v -5.542330 4.338973 1.569916
v 0.170227 4.631314 -3.270416
v 9.751236 -5.945048 -4.760470
v 1.266190 -5.297136 -0.261017
v -7.033142 -4.145596 6.852632
vt 0.753830 0.773910
vt 0.755890 0.612210
vt 0.963700 0.742720
vt 0.942940 0.813530
vt 0.163030 0.687130
vt 0.225300 0.623710
vt 0.347620 0.727490
vt 0.186350 0.775910
vt 0.217970 0.268700
vt 0.001950 0.476400
vt 0.005150 0.297020
vt 0.428360 0.523250
vt 0.546890 0.295580
vt 0.697320 0.474430
vt 0.557880 0.580920
vt 0.684420 0.598510
vt 0.717640 0.791760
vt 0.421920 0.848500
vt 0.734510 0.924110
vt 0.927350 0.912640
vt 0.375140 0.887950
vt 0.028250 0.003930
vt 0.218120 0.061180
vt 0.293440 0.266560
vt 0.441610 0.109450
vt 0.734960 0.977210
vt 0.436120 0.998000
vt 0.278280 0.567760
vt 0.436190 0.551700
vt 0.572510 0.677400
vt 0.285870 0.485660
vt 0.009680 0.599110
vt 0.549910 0.001990
vt 0.700030 0.165680
vt 0.856450 0.347880
vt 0.763080 0.427670
vt 0.976880 0.680270
vt 0.316430 0.341500
vn -0.709318 -0.678559 0.190855
vn -0.518485 -0.681707 0.516187
vn -0.533412 0.773112 0.343174
vn -0.761315 0.645280 0.063353
vn -0.761315 0.645280 0.063353
vn -0.533412 0.773112 0.343174
vn -0.060191 0.977149 -0.203856
vn -0.581817 0.412601 -0.700892
vn 0.032214 0.480265 -0.876532
vn 0.563711 -0.648780 -0.511190
vn -0.109926 -0.757394 -0.643639
vn -0.510708 -0.719603 -0.470478
vn -0.049430 -0.996135 0.072611
vn -0.518485 -0.681707 0.516187
vn -0.709318 -0.678559 0.190855
vn -0.138017 -0.651044 0.746386
vn 0.488941 -0.584120 0.647874
vn 0.373353 0.786098 0.492603
vn -0.510708 -0.719603 -0.470478
vn -0.709318 -0.678559 0.190855
vn -0.761315 0.645280 0.063353
vn -0.581817 0.412601 -0.700892
vn -0.581817 0.412601 -0.700892
vn -0.060191 0.977149 -0.203856
vn 0.032214 0.480265 -0.876532
vn -0.109926 -0.757394 -0.643639
vn -0.510708 -0.719603 -0.470478
vn -0.581817 0.412601 -0.700892
vn 0.032214 0.480265 -0.876532
vn -0.109926 -0.757394 -0.643639
vn 0.563711 -0.648780 -0.511190
vn -0.049430 -0.996135 0.072611
vn -0.510708 -0.719603 -0.470478
vn 0.373353 0.786098 0.492603
vn 0.488941 -0.584120 0.647874
vn 0.965416 -0.259620 -0.023849
vn 0.761786 0.644693 -0.063666
vn -0.533412 0.773112 0.343174
vn -0.390977 0.794290 0.465018
vn 0.373353 0.786098 0.492603
vn -0.060191 0.977149 -0.203856
vn 0.032214 0.480265 -0.876532
vn -0.060191 0.977149 -0.203856
vn 0.373353 0.786098 0.492603
vn 0.761786 0.644693 -0.063666
vn 0.563711 -0.648780 -0.511190
vn 0.032214 0.480265 -0.876532
vn 0.761786 0.644693 -0.063666
vn 0.965416 -0.259620 -0.023849
vn -0.049430 -0.996135 0.072611
vn 0.563711 -0.648780 -0.511190
vn 0.965416 -0.259620 -0.023849
vn 0.488941 -0.584120 0.647874
vn -0.518485 -0.681707 0.516187
vn -0.049430 -0.996135 0.072611
vn 0.488941 -0.584120 0.647874
vn -0.138017 -0.651044 0.746386
vn -0.533412 0.773112 0.343174
vn -0.518485 -0.681707 0.516187
vn -0.138017 -0.651044 0.746386
vn -0.390977 0.794290 0.465018
vn -0.138017 -0.651044 0.746386
vn 0.373353 0.786098 0.492603
vn -0.390977 0.794290 0.465018
s off
g RockE_mesh
usemtl initialShadingGroup
f 1/1/1 17/2/2 13/3/3 3/4/4
f 3/5/5 13/6/6 14/7/7 10/8/8
f 5/9/9 15/10/10 7/11/11
f 11/12/12 16/13/13 17/14/14 1/15/15
f 2/16/16 12/17/17 9/18/18
f 11/19/19 1/1/20 3/4/21 10/20/22
f 10/8/23 14/7/24 5/21/25
f 7/11/26 11/22/27 10/23/28 5/9/29
f 7/24/30 15/25/31 16/13/32 11/12/33
f 9/18/34 12/17/35 8/26/36 6/27/37
f 13/6/38 4/28/39 9/29/40 14/7/41
f 5/21/42 14/7/43 9/29/44 6/30/45
f 15/10/46 5/9/47 6/31/48 8/32/49
f 16/13/50 15/25/51 8/33/52 12/34/53
f 17/14/54 16/13/55 12/34/56 2/35/57
f 13/3/58 17/2/59 2/36/60 4/37/61
f 2/38/62 9/29/63 4/28/64
