# This file uses centimeters as units for non-parametric coordinates.

mtllib RockO.mtl
g default
v -100.290604 -35.856350 103.562805
v 114.359116 -33.642490 76.603500
v -95.060608 29.589783 112.705353
v 110.005493 33.754608 99.185257
v -86.809692 35.362686 -104.018967
v 100.185577 36.145390 -119.704704
v -96.063400 -23.860920 -109.156311
v 105.409561 -28.330507 -108.340874
v -6.004895 35.567722 -133.562805
v -4.894864 -35.881226 -134.068451
v -0.768742 -36.348938 123.813736
v 0.000000 33.813175 135.597061
v 118.625206 36.013176 -0.000007
v 0.000000 40.313179 -0.000007
v -105.376205 31.408188 21.675375
v -118.247543 -27.422646 18.322916
v 0.000000 -40.918427 0.000000
v 118.151871 -33.813183 0.000000
v 82.158737 -35.434841 125.267334
v 82.154755 33.813175 128.157211
v 94.180710 -3.486308 134.210983
v 0.000000 -0.000003 131.894043
v -103.890213 -0.000003 109.148407
v -113.513466 0.157359 18.570522
v -93.314873 2.278135 -109.581657
v -5.717528 -0.000003 -140.658768
v 106.100174 -0.000003 -112.362610
v 125.263428 1.099997 -0.000003
v 114.895546 -12.379438 118.128693
v -85.263046 30.370525 126.383423
v -91.548279 -0.000003 129.327515
v -84.749664 -34.671520 120.441513
v -75.831108 35.178352 -114.633148
v -64.012939 18.072361 -131.002884
v -68.330971 -33.813183 -131.278168
v 83.300476 36.689285 -128.397339
v 96.747772 -0.000003 -135.566895
v 96.434464 -28.521572 -135.471664
v 114.821388 34.936432 -77.280502
v 115.963287 -0.245411 -80.100441
v 114.444962 -28.633432 -80.872208
v 70.368843 20.561825 136.993942
v 111.633179 18.340540 122.341805
v 91.276390 19.362907 131.702103
v -82.996696 -32.180603 -116.438454
v -109.956436 -36.159447 16.648685
v -109.025452 -35.856350 72.551369
v -82.696831 -15.252847 -126.116058
v -107.072952 -35.856350 88.778656
v -106.037964 -26.414585 104.902061
v -94.848145 -24.928539 125.056183
v -36.299034 -37.517731 123.980515
vt 0.514431 0.702763
vt 0.517417 0.643922
vt 0.634662 0.621754
vt 0.705143 0.624798
vt 0.706088 0.699080
vt 0.458184 0.645360
vt 0.465806 0.698724
vt 0.538131 0.623938
vt 0.870354 0.627896
vt 0.892479 0.694108
vt 0.508048 0.767464
vt 0.705491 0.767257
vt 0.473517 0.761009
vt 0.942693 0.671252
vt 0.982964 0.583125
vt 0.845974 0.741185
vt 0.935646 0.737353
vt 0.888473 0.739340
vt 0.871382 0.772130
vt 0.059317 0.119469
vt 0.079111 0.092252
vt 0.249687 0.074407
vt 0.249438 0.345797
vt 0.037987 0.301908
vt 0.413690 0.089607
vt 0.469246 0.147489
vt 0.486401 0.345593
vt 0.237594 0.612952
vt 0.097640 0.575354
vt 0.075607 0.554088
vt 0.481007 0.093182
vt 0.479061 0.499929
vt 0.449820 0.584737
vt 0.416097 0.602162
vt 0.634895 0.924172
vt 0.605544 0.886401
vt 0.643838 0.823061
vt 0.561652 0.900593
vt 0.591090 0.922209
vt 0.570562 0.847198
vt 0.759655 0.856191
vt 0.761789 0.929214
vt 0.580872 0.778284
vt 0.611877 0.782293
vt 0.756976 0.783416
vt 0.046055 0.846976
vt 0.966865 0.910403
vt 0.938649 0.776945
vt 0.071283 0.778460
vt 0.087881 0.846609
vt 0.314946 0.918806
vt 0.315779 0.846540
vt 0.557798 0.874520
vt 0.473061 0.918723
vt 0.150481 0.904391
vt 0.153656 0.847920
vt 0.316051 0.774491
vt 0.520191 0.778878
vt 0.966608 0.852509
vt 0.093611 0.900208
vt 0.158719 0.778093
vt 0.567257 0.811255
vt 0.036581 0.774336
vt 0.042795 0.897194
vt 0.561737 0.104052
vt 0.426810 0.625167
vt 0.533908 0.756117
vt 0.522989 0.694681
vt 0.284220 0.694332
vt 0.284724 0.639109
vt 0.394185 0.624304
vt 0.460781 0.622974
vt 0.592236 0.075330
vt 0.288881 0.758757
vt 0.026606 0.698407
vt 0.028383 0.646054
vt 0.280027 0.615594
vt 0.509044 0.618613
vt 0.505607 0.649583
vt 0.035524 0.765936
vt 0.009248 0.617812
vt 0.944841 0.502141
vt 0.877367 0.597432
vt 0.711694 0.589513
vt 0.720717 0.342062
vt 0.957053 0.349218
vt 0.640632 0.587764
vt 0.543818 0.577791
vt 0.513726 0.543064
vt 0.501121 0.513094
vt 0.498247 0.480551
vt 0.499899 0.368768
vt 0.719286 0.073645
vt 0.922473 0.076845
vt 0.938809 0.131606
vt 0.955154 0.187066
vn -0.199086 -0.004260 0.979973
vn -0.254169 -0.221661 0.941416
vn -0.041553 -0.149197 0.987934
vn -0.007757 -0.906506 0.422121
vn -0.005826 -0.972199 0.234083
vn -0.037128 0.959545 0.279097
vn -0.022259 0.999664 0.013262
vn -0.099321 0.928188 0.358611
vn -0.392319 0.915365 0.090516
vn -0.356964 0.934042 0.011921
vn -0.116698 -0.921024 -0.371614
vn -0.565745 0.047249 -0.823225
vn -0.269073 0.247313 -0.930825
vn -0.116899 -0.992999 -0.016941
vn -0.780551 -0.615655 0.108204
vn -0.997232 -0.046180 -0.058272
vn 0.316918 -0.947808 -0.034974
vn 0.999968 0.007426 0.003143
vn 0.386003 -0.921468 0.043572
vn 0.943799 -0.165665 0.286004
vn -0.967188 0.168700 0.189966
vn -0.977320 0.207075 -0.044342
vn -0.980031 0.001785 0.198836
vn -0.821013 -0.551102 0.149076
vn 0.245097 0.108028 -0.963461
vn 0.143831 -0.928868 -0.341347
vn -0.025573 0.017017 -0.999528
vn 0.023647 -0.961058 -0.275333
vn 0.000265 -0.999965 -0.008365
vn 0.077477 -0.945675 0.315747
vn 0.146169 -0.208964 0.966938
vn 0.042906 0.991551 0.122417
vn 0.449649 0.889729 0.078728
vn 0.308378 0.951153 0.014548
vn -0.014839 0.961027 -0.276055
vn 0.039086 0.919062 -0.392170
vn 0.304368 0.940887 -0.148631
vn 0.341863 0.938269 -0.052743
vn -0.106576 0.977870 -0.180034
vn -0.466966 0.880192 -0.084883
vn -0.930764 -0.292352 -0.219564
vn -0.950349 0.179124 -0.254464
vn -0.151961 -0.985808 -0.071352
vn 0.336106 -0.938177 -0.082810
vn 0.285165 -0.954068 -0.091845
vn 0.945190 0.022926 -0.325716
vn 0.988247 -0.015749 -0.152055
vn 0.021574 0.080586 0.996514
vn 0.805821 0.350322 0.477418
vn 0.340850 0.258051 0.904008
vn -0.077044 -0.987239 0.139370
vn -0.080710 -0.992720 0.089404
s 1
g RockO_mesh
usemtl lambert6SG
f 31/68/1 51/2/2 22/5/3
f 51/2/2 52/3/4 22/5/3
f 52/3/4 11/4/5 22/5/3
f 12/22/6 14/23/7 30/21/8
f 30/21/8 14/23/7 3/20/9
f 3/20/9 14/23/7 15/24/10
f 35/35/11 48/36/12 34/37/13
f 46/77/14 47/71/15 16/70/16
f 18/51/17 28/52/18 2/54/19
f 2/54/19 28/52/18 29/53/20
f 23/7/21 24/69/22 50/6/23
f 24/69/22 16/70/16 50/6/23
f 16/70/16 47/71/15 50/6/23
f 49/66/24 50/6/23 47/71/15
f 37/59/25 38/47/26 26/41/27
f 26/41/27 38/47/26 10/42/28
f 18/86/17 2/82/19 17/85/29
f 2/82/19 19/83/30 17/85/29
f 19/83/30 11/84/5 17/85/29
f 11/4/5 19/9/30 22/5/3
f 22/5/3 19/9/30 21/10/31
f 12/22/6 20/25/32 14/23/7
f 20/25/32 4/26/33 14/23/7
f 14/23/7 4/26/33 13/27/34
f 9/28/35 14/23/7 36/34/36
f 36/34/36 14/23/7 6/33/37
f 6/33/37 14/23/7 39/32/38
f 14/23/7 13/27/34 39/32/38
f 9/28/35 33/29/39 14/23/7
f 15/24/10 14/23/7 5/30/40
f 14/23/7 33/29/39 5/30/40
f 16/70/16 24/69/22 7/76/41
f 7/76/41 24/69/22 25/75/42
f 45/81/43 46/77/14 7/76/41
f 7/76/41 46/77/14 16/70/16
f 18/86/17 17/85/29 41/96/44
f 41/96/44 17/85/29 8/95/45
f 10/93/28 38/94/26 17/85/29
f 17/85/29 38/94/26 8/95/45
f 27/50/46 40/56/47 8/60/45
f 8/60/45 40/56/47 41/55/44
f 21/10/31 19/9/30 29/14/20
f 29/14/20 19/9/30 2/15/19
f 12/12/6 42/16/48 20/19/32
f 31/68/1 22/5/3 30/67/8
f 30/67/8 22/5/3 12/12/6
f 24/69/22 23/7/21 15/74/10
f 15/74/10 23/7/21 3/13/9
f 25/75/42 24/69/22 5/80/40
f 5/80/40 24/69/22 15/74/10
f 5/43/40 33/44/39 25/40/42
f 25/40/42 33/44/39 34/37/13
f 9/45/35 36/48/36 26/41/27
f 26/41/27 36/48/36 37/59/25
f 6/49/37 39/61/38 27/50/46
f 27/50/46 39/61/38 40/56/47
f 29/53/20 28/52/18 4/58/33
f 4/58/33 28/52/18 13/57/34
f 4/58/33 43/62/49 29/53/20
f 23/7/21 31/1/1 3/13/9
f 3/13/9 31/1/1 30/11/8
f 50/6/23 51/79/2 23/7/21
f 23/7/21 51/79/2 31/1/1
f 33/44/39 9/45/35 34/37/13
f 34/37/13 9/45/35 26/41/27
f 34/37/13 26/41/27 35/35/11
f 35/35/11 26/41/27 10/42/28
f 36/63/36 6/49/37 37/46/25
f 37/46/25 6/49/37 27/50/46
f 37/46/25 27/50/46 38/64/26
f 38/64/26 27/50/46 8/60/45
f 40/56/47 39/61/38 28/52/18
f 28/52/18 39/61/38 13/57/34
f 41/55/44 40/56/47 18/51/17
f 18/51/17 40/56/47 28/52/18
f 12/12/6 22/5/3 42/16/48
f 42/16/48 22/5/3 21/10/31
f 20/19/32 42/16/48 44/18/50
f 43/17/49 21/10/31 29/14/20
f 20/25/32 43/31/49 4/26/33
f 20/19/32 44/18/50 43/17/49
f 44/18/50 42/16/48 21/10/31
f 43/17/49 44/18/50 21/10/31
f 46/92/14 45/65/43 17/85/29
f 10/93/28 17/85/29 35/73/11
f 17/85/29 45/65/43 35/73/11
f 17/85/29 11/84/5 46/92/14
f 11/84/5 52/87/4 46/92/14
f 52/87/4 32/88/51 46/92/14
f 32/88/51 1/89/52 46/92/14
f 46/92/14 1/89/52 47/91/15
f 1/89/52 49/90/24 47/91/15
f 25/40/42 34/37/13 48/36/12
f 7/38/41 48/36/12 45/39/43
f 45/39/43 48/36/12 35/35/11
f 25/40/42 48/36/12 7/38/41
f 1/72/52 50/6/23 49/66/24
f 32/78/51 51/79/2 1/72/52
f 1/72/52 51/79/2 50/6/23
f 52/3/4 51/2/2 32/8/51
