# This file uses centimeters as units for non-parametric coordinates.

mtllib RockL.mtl
g default
v -61.874695 -61.607014 75.830002
v 79.559067 -59.492870 67.110725
v -62.977505 72.387817 64.929710
v 70.341125 65.736206 63.247177
v -58.469231 73.793686 -56.518890
v -73.762711 -61.225189 -82.891220
v 38.084343 -60.945332 -80.942490
v -63.734806 20.470478 -66.397385
v -72.643814 6.036606 77.293076
v 71.941742 2.512712 70.934021
v 75.027374 37.126171 -72.915375
v -20.423595 -67.201553 6.483879
v -9.670109 -62.726044 8.543449
v -73.416740 4.613644 -65.123764
v 60.100681 -24.845062 -82.229141
v 74.804260 -21.887615 71.329750
v -81.046043 -60.866203 13.721054
v 37.862968 -63.801674 79.662971
v -78.184807 -24.221251 30.785294
v -73.506218 -37.003975 74.150322
v -75.979134 6.785164 23.804230
v 78.430603 -23.028439 -35.520157
v 76.468323 14.417942 -23.237274
v 38.089027 -47.220142 80.694038
v 24.398468 -21.860695 77.999725
v 33.363865 23.383579 -76.940155
v 73.952568 73.652039 -3.212982
v 69.251228 48.848614 68.363449
v 60.562244 72.215500 67.111908
v 22.019100 72.942017 68.958473
v -19.059145 6.275349 76.999672
v 6.532112 74.812714 -71.315643
v -73.478012 -65.660400 12.708832
v 2.343062 73.192596 69.893822
v 12.254272 57.278843 72.266563
v -1.948672 70.614761 70.277008
v -55.475441 72.900208 71.844826
v 4.488296 73.901550 -12.632126
v -64.867355 58.930790 73.226608
v -43.038734 74.372055 -67.924667
v -61.131733 43.153339 -61.535080
v -61.054592 74.196808 1.105042
v -65.401245 42.288074 8.291077
v -69.812195 12.578846 15.621811
v 42.370056 75.204285 6.127144
v 79.153519 -25.648096 -61.368423
v 84.057816 -45.965282 -51.244812
v 80.165268 -59.936420 -38.646042
v 73.950134 46.320026 -71.509720
v 67.245964 56.549938 -72.175262
v 72.170471 74.033600 -59.595230
v 52.207264 74.327347 -71.993057
v 65.751091 74.176498 -63.553146
v 57.997692 -57.819473 -80.146622
v 59.594090 -60.429623 -59.322586
v 78.265991 -57.749718 -58.930771
v 14.788239 -64.142227 28.363251
v -77.805161 -60.086216 65.590881
v -77.248627 -34.801651 70.130600
v -73.019112 -49.189945 74.257683
v -77.137589 -47.195984 71.209305
v -59.362282 2.872921 -77.782272
v -53.092987 23.088360 -74.516113
v -48.855984 41.390194 -71.331482
vt 0.471553 0.624581
vt 0.437428 0.345352
vt 0.581942 0.340261
vt 0.610201 0.603476
vt 0.327273 0.613774
vt 0.400842 0.341682
vt 0.330347 0.417144
vt 0.321089 0.333015
vt 0.687005 0.867185
vt 0.012762 0.401178
vt 0.852387 0.569411
vt 0.304048 0.695896
vt 0.322627 0.712712
vt 0.252164 0.778511
vt 0.329053 0.730816
vt 0.328269 0.862968
vt 0.077540 0.998008
vt 0.076758 0.863004
vt 0.187204 0.528285
vt 0.198619 0.654095
vt 0.001742 0.629351
vt 0.533089 0.924067
vt 0.189888 0.504860
vt 0.300937 0.945345
vt 0.349013 0.783515
vt 0.408574 0.004935
vt 0.574687 0.917842
vt 0.397507 0.996401
vt 0.539152 0.047490
vt 0.422673 0.729926
vt 0.380091 0.636631
vt 0.493038 0.731436
vt 0.407513 0.120329
vt 0.485218 0.149920
vt 0.359932 0.415690
vt 0.408217 0.440185
vt 0.052042 0.827075
vt 0.715324 0.317197
vt 0.607648 0.200007
vt 0.543749 0.346580
vt 0.584038 0.363719
vt 0.589727 0.435901
vt 0.466006 0.521905
vt 0.037907 0.863553
vt 0.867905 0.435876
vt 0.197086 0.635723
vt 0.591349 0.472954
vt 0.561579 0.456312
vt 0.590380 0.482487
vt 0.597728 0.586965
vt 0.751312 0.453300
vt 0.574992 0.602374
vt 0.312020 0.651309
vt 0.871959 0.536020
vt 0.622279 0.895089
vt 0.079233 0.819266
vt 0.655660 0.740487
vt 0.737471 0.586846
vt 0.582072 0.743780
vt 0.514720 0.744578
vt 0.705692 0.382413
vt 0.404126 0.065076
vt 0.359690 0.085098
vt 0.103312 0.318282
vt 0.328068 0.110219
vt 0.339365 0.929988
vt 0.558632 0.051660
vt 0.036373 0.716954
vt 0.828845 0.307116
vt 0.615993 0.080510
vt 0.075104 0.710846
vt 0.858480 0.344167
vt 0.838343 0.319049
vt 0.337611 0.002000
vt 0.058830 0.358677
vt 0.015568 0.359760
vt 0.335076 0.064916
vt 0.231072 0.458694
vt 0.330310 0.662405
vt 0.306035 0.646710
vt 0.386154 0.647958
vt 0.354235 0.636748
vt 0.358407 0.647855
vt 0.046100 0.779858
vt 0.078700 0.779997
vt 0.174332 0.687586
vt 0.265860 0.667354
vt 0.061052 0.319899
vt 0.297070 0.656138
vn 0.151591 0.878268 0.453504
vn 0.030364 0.949029 0.313723
vn 0.048314 0.092930 0.994500
vn -0.107747 0.983623 0.144484
vn 0.837698 0.061628 0.542645
vn 0.764151 0.108028 0.635927
vn 0.073789 0.990605 -0.115141
vn 0.035028 0.757593 -0.651787
vn -0.004957 0.999949 0.008846
vn -0.028061 0.726206 -0.686904
vn 0.201869 0.131442 -0.970552
vn 0.929987 0.100346 -0.353632
vn -0.005731 0.106079 -0.994341
vn 0.765762 0.116756 -0.632437
vn 0.170451 0.017988 -0.985202
vn 0.026453 -0.999578 -0.011999
vn -0.102573 -0.994725 0.000396
vn -0.472510 -0.636709 -0.609373
vn -0.660745 0.092605 0.744876
vn -0.591038 0.159652 0.790687
vn -0.961269 0.273013 -0.037775
vn -0.990409 0.130767 -0.044608
vn -0.978257 0.207378 0.002894
vn -0.996990 0.077018 0.008911
vn -0.989846 0.063388 0.127231
vn -0.058550 -0.909730 0.411050
vn 0.042089 -0.940894 0.336075
vn 0.059124 0.020913 0.998032
vn -0.000586 -0.765401 -0.643553
vn 0.446243 -0.401308 -0.799887
vn 0.043928 -0.998599 -0.029519
vn 0.691813 -0.486695 -0.533407
vn -0.094253 0.105203 -0.989974
vn 0.059764 -0.997983 -0.021432
vn 0.031954 -0.997868 -0.056908
vn -0.930641 0.317159 -0.182533
vn -0.974553 0.156876 -0.160115
vn -0.114875 0.190611 -0.974921
vn -0.101397 -0.037304 0.994146
vn 0.000511 0.036744 0.999325
vn 0.020724 0.071101 0.997254
vn -0.100038 -0.010569 0.994928
vn 0.649679 -0.737112 0.185967
vn 0.933420 0.089708 0.347391
vn -0.996794 -0.075700 -0.025931
vn -0.819198 -0.553865 0.148825
vn -0.990469 0.000433 0.137735
vn 0.998466 0.047848 0.027863
vn 0.992206 0.117587 0.041248
vn 0.932292 0.007097 -0.361636
vn -0.516733 0.847311 -0.122683
vn -0.117347 0.842491 -0.525774
vn -0.967403 0.141466 -0.210044
vn -0.136250 0.142925 -0.980310
vn 0.891204 0.452076 0.037177
vn 0.923845 0.337361 0.180827
vn 0.002561 0.999970 0.007307
vn 0.011117 0.809657 0.586798
vn 0.007735 0.951130 0.308693
vn -0.501745 0.864797 0.019427
vn -0.432126 0.901786 -0.006977
vn 0.997934 0.055663 -0.032074
vn 0.358744 -0.933398 -0.008416
vn 0.974666 0.216636 -0.055626
s 1
g RockL_mesh
usemtl lambert3SG
f 29/41/1 30/42/2 35/48/3
f 35/48/3 30/42/2 34/47/4
f 29/41/1 35/48/3 28/40/5
f 28/40/5 35/48/3 10/2/6
f 53/73/7 52/72/8 38/51/9
f 38/51/9 52/72/8 32/45/10
f 50/12/11 49/13/12 26/14/13
f 49/13/12 11/15/14 26/14/13
f 26/14/13 11/15/14 15/16/15
f 12/19/16 33/46/17 6/21/18
f 9/1/19 39/52/20 44/60/21
f 44/60/21 39/52/20 43/59/22
f 21/32/23 19/30/24 9/1/19
f 9/1/19 19/30/24 59/81/25
f 1/5/26 18/7/27 24/35/28
f 7/10/29 54/76/30 55/75/31
f 55/75/31 54/76/30 56/88/32
f 6/17/18 62/18/33 7/24/29
f 7/24/29 62/18/33 15/16/15
f 57/78/34 12/19/16 13/23/35
f 18/7/27 1/5/26 12/19/16
f 12/19/16 1/5/26 33/46/17
f 57/78/34 13/23/35 55/75/31
f 55/75/31 13/23/35 7/10/29
f 7/10/29 13/23/35 6/21/18
f 13/23/35 12/19/16 6/21/18
f 8/27/36 14/22/37 44/60/21
f 44/60/21 14/22/37 21/32/23
f 63/56/38 26/14/13 62/18/33
f 62/18/33 26/14/13 15/16/15
f 20/31/39 31/43/40 9/1/19
f 9/1/19 31/43/40 39/52/20
f 25/36/41 31/43/40 60/82/42
f 60/82/42 31/43/40 20/31/39
f 2/8/43 18/7/27 57/78/34
f 18/7/27 2/8/43 24/35/28
f 24/35/28 2/8/43 16/6/44
f 17/25/45 58/79/46 19/30/24
f 19/30/24 58/79/46 61/83/47
f 24/35/28 25/36/41 1/5/26
f 1/5/26 25/36/41 60/82/42
f 23/34/48 16/6/44 22/33/49
f 22/33/49 16/6/44 2/8/43
f 16/6/44 23/34/48 10/2/6
f 17/25/45 19/30/24 14/22/37
f 19/30/24 21/32/23 14/22/37
f 17/25/45 14/22/37 6/28/18
f 44/60/21 21/32/23 9/1/19
f 15/16/15 54/66/30 7/24/29
f 11/29/14 46/62/50 15/26/15
f 24/35/28 10/2/6 25/36/41
f 10/2/6 24/35/28 16/6/44
f 31/43/40 25/36/41 35/48/3
f 35/48/3 25/36/41 10/2/6
f 5/68/51 40/71/52 41/84/53
f 41/84/53 40/71/52 64/85/54
f 27/39/55 28/40/5 23/34/48
f 23/34/48 28/40/5 10/2/6
f 28/40/5 27/39/55 4/3/56
f 29/41/1 28/40/5 4/3/56
f 32/86/10 52/87/8 26/14/13
f 26/14/13 52/87/8 50/12/11
f 1/5/26 58/80/46 33/46/17
f 33/46/17 58/80/46 17/20/45
f 6/21/18 33/46/17 17/20/45
f 27/38/55 29/41/1 4/3/56
f 27/38/55 45/61/57 29/41/1
f 29/41/1 45/61/57 30/42/2
f 34/47/4 36/49/58 35/48/3
f 35/48/3 36/49/58 31/43/40
f 37/50/59 39/52/20 36/49/58
f 36/49/58 39/52/20 31/43/40
f 5/11/51 38/51/9 40/54/52
f 38/51/9 32/45/10 40/54/52
f 38/51/9 37/50/59 36/49/58
f 38/51/9 36/49/58 34/47/4
f 38/51/9 34/47/4 45/61/57
f 45/61/57 34/47/4 30/42/2
f 39/52/20 37/50/59 3/4/60
f 37/50/59 38/51/9 3/4/60
f 3/4/60 38/51/9 42/58/61
f 42/57/61 43/59/22 3/4/60
f 3/4/60 43/59/22 39/52/20
f 63/56/38 64/85/54 26/14/13
f 8/27/36 43/59/22 41/55/53
f 41/55/53 43/59/22 42/57/61
f 44/60/21 43/59/22 8/27/36
f 41/55/53 42/57/61 5/9/51
f 40/71/52 32/86/10 64/85/54
f 64/85/54 32/86/10 26/14/13
f 42/58/61 38/51/9 5/11/51
f 11/29/14 23/34/48 46/62/50
f 46/62/50 23/34/48 22/33/49
f 46/62/50 22/33/49 47/63/62
f 47/63/62 22/33/49 2/8/43
f 2/8/43 48/65/63 47/63/62
f 47/63/62 48/65/63 56/77/32
f 11/29/14 49/67/12 23/34/48
f 27/39/55 23/34/48 51/70/64
f 51/70/64 23/34/48 49/67/12
f 51/69/64 53/73/7 27/38/55
f 27/38/55 53/73/7 45/61/57
f 53/73/7 38/51/9 45/61/57
f 53/89/7 51/53/64 50/12/11
f 50/12/11 51/53/64 49/13/12
f 52/87/8 53/89/7 50/12/11
f 15/26/15 46/62/50 54/74/30
f 54/74/30 46/62/50 56/77/32
f 56/77/32 46/62/50 47/63/62
f 55/75/31 56/88/32 48/64/63
f 2/8/43 57/78/34 48/64/63
f 48/64/63 57/78/34 55/75/31
f 1/5/26 60/82/42 58/79/46
f 58/79/46 60/82/42 61/83/47
f 9/1/19 59/81/25 20/31/39
f 60/82/42 20/31/39 61/83/47
f 61/83/47 20/31/39 59/81/25
f 19/30/24 61/83/47 59/81/25
f 14/44/37 62/18/33 6/17/18
f 63/56/38 62/18/33 8/37/36
f 8/37/36 62/18/33 14/44/37
f 64/85/54 63/56/38 41/84/53
f 41/84/53 63/56/38 8/37/36
f 57/78/34 18/7/27 12/19/16
