# This file uses centimeters as units for non-parametric coordinates.

mtllib RockI.mtl
g default
v -97.099747 16.931732 -33.685150
v 6.346161 -11.261627 -60.166435
v 9.185730 0.444305 42.388268
v -89.198288 9.487885 36.800995
v 101.504822 7.141846 -29.414864
v 99.012924 -5.609314 44.878036
v 5.550873 43.675659 68.922501
v -118.719315 51.110657 40.297775
v -115.226654 58.316620 -38.847427
v -117.191132 124.679840 37.694283
v -110.620712 131.169769 -41.650772
v -95.737747 197.820465 17.885437
v -99.190887 201.994064 -45.073853
v 1.538849 130.609497 -58.750229
v 4.841492 57.884949 -63.364334
v 2.077759 202.508652 -53.227196
v 100.134735 198.910095 -40.630684
v 116.694733 127.808044 -43.371162
v 85.548645 271.996918 -41.176224
v 2.263123 277.303467 -51.660156
v 83.258453 268.306732 14.059479
v 95.836731 195.691162 26.823288
v 116.343475 121.372192 42.181625
v 1.295502 267.535858 17.706394
v 0.607605 190.708313 31.340141
v 67.914024 339.950684 1.413086
v -0.729492 346.409424 3.652985
v 71.040359 345.190704 -41.934471
v -0.733124 354.088409 -50.211258
v -75.006317 274.264679 -42.323418
v -56.129097 367.449615 -45.083008
v 120.719315 60.519684 -41.141586
v 115.299927 46.520660 46.106216
v -70.845627 269.142761 2.848267
v -51.792168 362.294739 -7.016449
v -36.146797 397.702148 -16.348476
v -37.539200 404.563873 -44.455643
v -4.559263 416.603516 -12.011385
v -3.831974 423.967407 -47.046738
v 53.553940 405.345123 -10.812809
v 49.646469 408.125885 -36.517105
v 1.320068 117.536438 49.360733
vt 0.727538 0.829489
vt 0.685805 0.666465
vt 0.844694 0.662507
vt 0.837075 0.815069
vt 0.735072 0.516424
vt 0.852649 0.521780
vt 0.434461 0.024797
vt 0.592086 0.010308
vt 0.585928 0.085863
vt 0.389561 0.093273
vt 0.667400 0.873403
vt 0.679462 0.987619
vt 0.600888 0.990218
vt 0.593632 0.865339
vt 0.488467 0.983639
vt 0.478653 0.860441
vt 0.372865 0.951855
vt 0.367790 0.855098
vt 0.369372 0.229418
vt 0.193761 0.228335
vt 0.188674 0.115768
vt 0.377585 0.117175
vt 0.192867 0.340648
vt 0.038638 0.335428
vt 0.013590 0.224688
vt 0.061370 0.449577
vt 0.192670 0.457609
vt 0.357635 0.704042
vt 0.473860 0.704687
vt 0.468980 0.790766
vt 0.352529 0.811052
vt 0.232510 0.833158
vt 0.242841 0.699945
vt 0.721963 0.326631
vt 0.703350 0.440231
vt 0.576048 0.439341
vt 0.574347 0.317655
vt 0.681747 0.553113
vt 0.575024 0.564484
vt 0.588674 0.703066
vt 0.582145 0.770212
vt 0.197392 0.577669
vt 0.084364 0.564159
vt 0.314201 0.453082
vt 0.284400 0.598708
vt 0.351481 0.340276
vt 0.006607 0.120539
vt 0.032145 0.034758
vt 0.187045 0.009103
vt 0.032502 0.838856
vt 0.050945 0.723193
vt 0.138387 0.703871
vt 0.117007 0.839320
vt 0.731082 0.013775
vt 0.753841 0.094914
vt 0.352041 0.051884
vt 0.251107 0.860497
vt 0.257204 0.930843
vt 0.460571 0.447028
vt 0.421515 0.331468
vt 0.108762 0.914804
vt 0.102699 0.854698
vt 0.494728 0.593671
vt 0.047946 0.901747
vt 0.037960 0.857708
vt 0.677921 0.782520
vt 0.680308 0.827490
vt 0.622976 0.832459
vt 0.617657 0.777068
vt 0.255438 0.656844
vt 0.202487 0.687076
vt 0.531807 0.845204
vt 0.533821 0.804562
vt 0.661782 0.656890
vt 0.571808 0.676717
vt 0.520137 0.650706
vt 0.576778 0.200807
vt 0.390036 0.210461
vt 0.753989 0.209950
vt 0.116972 0.663288
vt 0.684961 0.750913
vt 0.690902 0.711106
vn -0.442257 -0.750000 -0.491842
vn -0.031723 -0.822339 -0.568114
vn -0.055092 -0.901467 0.429328
vn -0.350225 -0.843410 0.407434
vn -0.055092 -0.901467 0.429328
vn -0.031723 -0.822339 -0.568114
vn 0.472206 -0.736401 -0.484494
vn 0.367479 -0.835925 0.407661
vn -0.350225 -0.843410 0.407434
vn -0.055092 -0.901467 0.429328
vn -0.024961 -0.030336 0.999228
vn -0.664654 -0.087211 0.742044
vn -0.442257 -0.750000 -0.491842
vn -0.350225 -0.843410 0.407434
vn -0.664654 -0.087211 0.742044
vn -0.658294 -0.100028 -0.746086
vn -0.609181 0.215850 0.763091
vn -0.635288 0.084481 -0.767641
vn -0.658294 -0.100028 -0.746086
vn -0.664654 -0.087211 0.742044
vn -0.635288 0.084481 -0.767641
vn -0.609181 0.215850 0.763091
vn -0.574099 0.318044 0.754492
vn -0.597567 0.170129 -0.783562
vn -0.635288 0.084481 -0.767641
vn -0.005793 0.033470 -0.999423
vn 0.002724 -0.049394 -0.998776
vn -0.658294 -0.100028 -0.746086
vn -0.005793 0.033470 -0.999423
vn 0.011477 0.040897 -0.999098
vn 0.643344 0.164200 -0.747761
vn 0.679916 0.113912 -0.724388
vn 0.616959 0.119489 -0.777871
vn 0.643344 0.164200 -0.747761
vn 0.011477 0.040897 -0.999098
vn 0.013268 0.022201 -0.999666
vn 0.643344 0.164200 -0.747761
vn 0.616959 0.119489 -0.777871
vn 0.543451 0.241376 0.803990
vn 0.549272 0.280901 0.787016
vn 0.621052 0.208042 0.755654
vn 0.679916 0.113912 -0.724388
vn 0.643344 0.164200 -0.747761
vn 0.549272 0.280901 0.787016
vn 0.549272 0.280901 0.787016
vn 0.543451 0.241376 0.803990
vn -0.058293 0.183265 0.981334
vn -0.038699 0.224332 0.973744
vn 0.503438 0.262353 0.823238
vn -0.060636 0.183884 0.981076
vn -0.058293 0.183265 0.981334
vn 0.543451 0.241376 0.803990
vn 0.616959 0.119489 -0.777871
vn 0.577049 0.145781 -0.803593
vn 0.503438 0.262353 0.823238
vn 0.543451 0.241376 0.803990
vn 0.616959 0.119489 -0.777871
vn 0.013268 0.022201 -0.999666
vn 0.026397 0.034654 -0.999051
vn 0.577049 0.145781 -0.803593
vn 0.013268 0.022201 -0.999666
vn -0.602638 0.168317 -0.780062
vn -0.614983 0.162433 -0.771629
vn 0.026397 0.034654 -0.999051
vn 0.011477 0.040897 -0.999098
vn -0.597567 0.170129 -0.783562
vn -0.602638 0.168317 -0.780062
vn 0.013268 0.022201 -0.999666
vn -0.635288 0.084481 -0.767641
vn -0.597567 0.170129 -0.783562
vn 0.011477 0.040897 -0.999098
vn -0.005793 0.033470 -0.999423
vn 0.002724 -0.049394 -0.998776
vn -0.005793 0.033470 -0.999423
vn 0.679916 0.113912 -0.724388
vn 0.702608 -0.085339 -0.706441
vn 0.472206 -0.736401 -0.484494
vn -0.031723 -0.822339 -0.568114
vn 0.002724 -0.049394 -0.998776
vn 0.702608 -0.085339 -0.706441
vn 0.367479 -0.835925 0.407661
vn 0.472206 -0.736401 -0.484494
vn 0.702608 -0.085339 -0.706441
vn 0.667800 -0.070479 0.740996
vn 0.367479 -0.835925 0.407661
vn 0.667800 -0.070479 0.740996
vn -0.024961 -0.030336 0.999228
vn -0.055092 -0.901467 0.429328
vn 0.621052 0.208042 0.755654
vn 0.667800 -0.070479 0.740996
vn 0.702608 -0.085339 -0.706441
vn 0.679916 0.113912 -0.724388
vn -0.442257 -0.750000 -0.491842
vn -0.658294 -0.100028 -0.746086
vn 0.002724 -0.049394 -0.998776
vn -0.031723 -0.822339 -0.568114
vn -0.602638 0.168317 -0.780062
vn -0.597567 0.170129 -0.783562
vn -0.574099 0.318044 0.754492
vn -0.581836 0.274107 0.765723
vn -0.581836 0.274107 0.765723
vn -0.574099 0.318044 0.754492
vn -0.038699 0.224332 0.973744
vn -0.058293 0.183265 0.981334
vn -0.602638 0.168317 -0.780062
vn -0.581836 0.274107 0.765723
vn -0.626305 0.256431 0.736197
vn -0.614983 0.162433 -0.771629
vn -0.626305 0.256431 0.736197
vn -0.581836 0.274107 0.765723
vn -0.058293 0.183265 0.981334
vn -0.060636 0.183884 0.981076
vn -0.614983 0.162433 -0.771629
vn -0.626305 0.256431 0.736197
vn -0.506825 0.487766 0.710783
vn -0.470445 0.417813 -0.777248
vn -0.470445 0.417813 -0.777248
vn -0.506825 0.487766 0.710783
vn -0.056354 0.570017 0.819698
vn 0.034972 0.527488 -0.848843
vn -0.614983 0.162433 -0.771629
vn -0.470445 0.417813 -0.777248
vn 0.034972 0.527488 -0.848843
vn 0.026397 0.034654 -0.999051
vn 0.438880 0.461067 0.771233
vn 0.501913 0.456559 -0.734600
vn 0.034972 0.527488 -0.848843
vn -0.056354 0.570017 0.819698
vn -0.060636 0.183884 0.981076
vn 0.503438 0.262353 0.823238
vn 0.438880 0.461067 0.771233
vn -0.056354 0.570017 0.819698
vn -0.056354 0.570017 0.819698
vn -0.506825 0.487766 0.710783
vn -0.626305 0.256431 0.736197
vn -0.060636 0.183884 0.981076
vn -0.025043 0.194765 0.980530
vn -0.038699 0.224332 0.973744
vn -0.574099 0.318044 0.754492
vn -0.609181 0.215850 0.763091
vn 0.621052 0.208042 0.755654
vn 0.549272 0.280901 0.787016
vn -0.038699 0.224332 0.973744
vn -0.025043 0.194765 0.980530
vn -0.024961 -0.030336 0.999228
vn 0.667800 -0.070479 0.740996
vn 0.621052 0.208042 0.755654
vn -0.025043 0.194765 0.980530
vn -0.664654 -0.087211 0.742044
vn -0.024961 -0.030336 0.999228
vn -0.025043 0.194765 0.980530
vn -0.609181 0.215850 0.763091
vn 0.026397 0.034654 -0.999051
vn 0.034972 0.527488 -0.848843
vn 0.501913 0.456559 -0.734600
vn 0.577049 0.145781 -0.803593
vn 0.438880 0.461067 0.771233
vn 0.503438 0.262353 0.823238
vn 0.577049 0.145781 -0.803593
vn 0.501913 0.456559 -0.734600
s off
g RockI_mesh
usemtl initialShadingGroup
f 1/1/1 2/2/2 3/3/3 4/4/4
f 3/3/5 2/2/6 5/5/7 6/6/8
f 4/7/9 3/8/10 7/9/11 8/10/12
f 1/11/13 4/12/14 8/13/15 9/14/16
f 10/15/17 11/16/18 9/14/19 8/13/20
f 11/16/21 10/15/22 12/17/23 13/18/24
f 11/19/25 14/20/26 15/21/27 9/22/28
f 14/20/29 16/23/30 17/24/31 18/25/32
f 19/26/33 17/24/34 16/23/35 20/27/36
f 17/28/37 19/29/38 21/30/39 22/31/40
f 23/32/41 18/33/42 17/28/43 22/31/44
f 22/34/45 21/35/46 24/36/47 25/37/48
f 26/38/49 27/39/50 24/36/51 21/35/52
f 19/29/53 28/40/54 26/41/55 21/30/56
f 19/26/57 20/27/58 29/42/59 28/43/60
f 20/27/61 30/44/62 31/45/63 29/42/64
f 16/23/65 13/46/66 30/44/67 20/27/68
f 11/19/69 13/46/70 16/23/71 14/20/72
f 15/21/73 14/20/74 18/25/75 32/47/76
f 5/48/77 2/49/78 15/21/79 32/47/80
f 6/50/81 5/51/82 32/52/83 33/53/84
f 6/54/85 33/55/86 7/9/87 3/8/88
f 23/32/89 33/53/90 32/52/91 18/33/92
f 1/56/93 9/22/94 15/21/95 2/49/96
f 30/57/97 13/18/98 12/17/99 34/58/100
f 34/59/101 12/60/102 25/37/103 24/36/104
f 30/57/105 34/58/106 35/61/107 31/62/108
f 35/63/109 34/59/110 24/36/111 27/39/112
f 31/62/113 35/61/114 36/64/115 37/65/116
f 37/66/117 36/67/118 38/68/119 39/69/120
f 31/45/121 37/70/122 39/71/123 29/42/124
f 40/72/125 41/73/126 39/69/127 38/68/128
f 27/39/129 26/38/130 40/74/131 38/75/132
f 38/75/133 36/76/134 35/63/135 27/39/136
f 42/77/137 25/37/138 12/60/139 10/78/140
f 23/79/141 22/34/142 25/37/143 42/77/144
f 7/9/145 33/55/146 23/79/147 42/77/148
f 8/10/149 7/9/150 42/77/151 10/78/152
f 29/42/153 39/71/154 41/80/155 28/43/156
f 40/81/157 26/41/158 28/40/159 41/82/160
