# This file uses centimeters as units for non-parametric coordinates.

mtllib RockA.mtl
g default
v -42.344864 2.917908 88.545273
v 85.759628 13.890961 17.293615
v -41.460415 324.737854 -25.754879
v 39.622498 312.402466 -28.057289
v -34.659805 374.743958 -80.175270
v 26.012358 358.940247 -81.103386
v -84.411041 15.835846 -48.226349
v 86.113556 -0.048706 -55.078373
v -82.576706 -0.262634 28.596561
v 45.668373 18.529327 78.956505
v 75.231590 84.514656 55.724419
v 56.089218 0.928467 -82.153564
v 58.560371 0.290955 56.129623
v 3.986378 3.049744 -80.418106
v -51.106712 270.882416 -81.550301
v -57.787323 28.254974 -81.004196
v -52.543488 1.031921 -68.069633
v -54.201553 32.522095 80.102661
v -76.995041 36.434753 47.274372
v 61.186401 186.377502 -71.577087
v -58.320232 203.417816 6.761182
v 56.608543 188.458664 18.974413
v 44.689850 189.267929 -88.415314
v -59.968864 203.015518 -72.682961
v -51.748619 201.866913 -81.916069
v -14.292828 196.957962 -87.277481
v -46.794968 202.035461 23.124329
v 10.405244 367.477112 -39.388260
v -31.184097 374.893799 -52.412277
vt 0.111789 0.061681
vt 0.323506 0.201356
vt 0.257001 0.393024
vt 0.068318 0.381596
vt 0.115882 0.715331
vt 0.036081 0.723749
vt 0.037078 0.618995
vt 0.812158 0.594684
vt 0.765005 0.687780
vt 0.714392 0.686725
vt 0.701319 0.031686
vt 0.699903 0.375602
vt 0.658141 0.366463
vt 0.627896 0.024714
vt 0.421167 0.001992
vt 0.496556 0.050258
vt 0.427173 0.180153
vt 0.494901 0.371655
vt 0.779909 0.032102
vt 0.919274 0.006872
vt 0.951464 0.074530
vt 0.682212 0.682866
vt 0.833976 0.987578
vt 0.633595 0.737090
vt 0.636876 0.831230
vt 0.659500 0.933244
vt 0.287233 0.072658
vt 0.332907 0.041135
vt 0.415324 0.080845
vt 0.285138 0.832466
vt 0.363827 0.527253
vt 0.396461 0.877652
vt 0.470326 0.541253
vt 0.490425 0.881348
vt 0.884141 0.732896
vt 0.942312 0.914942
vt 0.710465 0.496527
vt 0.705692 0.370702
vt 0.728138 0.372010
vt 0.292652 0.886985
vt 0.692674 0.998008
vt 0.704404 0.056803
vt 0.713555 0.002325
vt 0.326979 0.205610
vt 0.436581 0.234299
vt 0.297015 0.393322
vt 0.037921 0.074361
vt 0.001899 0.002901
vt 0.140956 0.008629
vt 0.032654 0.388729
vt 0.871511 0.375400
vt 0.187573 0.625413
vt 0.676650 0.680428
vt 0.581238 0.594778
vt 0.295481 0.518384
vt 0.599679 0.705827
vt 0.279042 0.661741
vt 0.228002 0.655351
vt 0.280649 0.548943
vt 0.205011 0.579500
vn -0.195192 0.282512 0.939195
vn 0.449144 0.311793 0.837290
vn 0.441742 0.358646 0.822337
vn -0.116054 0.335881 0.934728
vn 0.150824 0.474891 0.867024
vn -0.353522 0.827079 0.436992
vn -0.327460 0.369923 0.869441
vn -0.327460 0.369923 0.869441
vn -0.353522 0.827079 0.436992
vn -0.463322 0.318619 -0.826931
vn 0.359008 -0.444958 -0.820443
vn 0.302173 0.018279 -0.953078
vn 0.952941 0.131615 -0.273095
vn 0.801795 -0.509208 -0.312781
vn 0.332839 -0.907877 0.254906
vn 0.801795 -0.509208 -0.312781
vn 0.990522 -0.045723 0.129520
vn 0.801795 -0.509208 -0.312781
vn 0.952941 0.131615 -0.273095
vn 0.990522 -0.045723 0.129520
vn 0.990522 -0.045723 0.129520
vn 0.952941 0.131615 -0.273095
vn 0.449144 0.311793 0.837290
vn 0.952941 0.131615 -0.273095
vn 0.441742 0.358646 0.822337
vn 0.449144 0.311793 0.837290
vn -0.993941 0.018770 -0.108298
vn -0.395517 -0.912240 0.106699
vn -0.966904 0.128839 0.220221
vn 0.801795 -0.509208 -0.312781
vn -0.395517 -0.912240 0.106699
vn 0.359008 -0.444958 -0.820443
vn 0.359008 -0.444958 -0.820443
vn -0.395517 -0.912240 0.106699
vn -0.033129 -0.488288 -0.872053
vn -0.395517 -0.912240 0.106699
vn -0.147313 -0.954546 -0.259117
vn -0.033129 -0.488288 -0.872053
vn 0.449144 0.311793 0.837290
vn 0.338343 0.043901 0.939998
vn 0.332839 -0.907877 0.254906
vn 0.990522 -0.045723 0.129520
vn -0.402165 -0.045077 -0.914457
vn -0.053601 0.010822 -0.998504
vn -0.033129 -0.488288 -0.872053
vn -0.053601 0.010822 -0.998504
vn 0.302173 0.018279 -0.953078
vn -0.033129 -0.488288 -0.872053
vn 0.302173 0.018279 -0.953078
vn 0.359008 -0.444958 -0.820443
vn -0.033129 -0.488288 -0.872053
vn -0.395517 -0.912240 0.106699
vn 0.332839 -0.907877 0.254906
vn -0.115145 -0.408413 0.905506
vn -0.765335 0.128384 -0.630698
vn -0.369516 0.026450 -0.928848
vn -0.987998 0.114346 -0.103846
vn -0.147313 -0.954546 -0.259117
vn -0.402165 -0.045077 -0.914457
vn -0.033129 -0.488288 -0.872053
vn -0.993941 0.018770 -0.108298
vn -0.147313 -0.954546 -0.259117
vn -0.395517 -0.912240 0.106699
vn -0.993941 0.018770 -0.108298
vn -0.402165 -0.045077 -0.914457
vn -0.147313 -0.954546 -0.259117
vn -0.463322 0.318619 -0.826931
vn 0.722553 0.269004 -0.636831
vn -0.765335 0.128384 -0.630698
vn -0.195192 0.282512 0.939195
vn -0.966904 0.128839 0.220221
vn -0.395517 -0.912240 0.106699
vn -0.115145 -0.408413 0.905506
vn -0.115145 -0.408413 0.905506
vn 0.338343 0.043901 0.939998
vn 0.449144 0.311793 0.837290
vn -0.195192 0.282512 0.939195
vn -0.327460 0.369923 0.869441
vn -0.977530 0.155158 0.142691
vn -0.116054 0.335881 0.934728
vn -0.993941 0.018770 -0.108298
vn -0.966904 0.128839 0.220221
vn -0.977530 0.155158 0.142691
vn -0.987998 0.114346 -0.103846
vn -0.115145 -0.408413 0.905506
vn 0.332839 -0.907877 0.254906
vn 0.338343 0.043901 0.939998
vn 0.150824 0.474891 0.867024
vn 0.441742 0.358646 0.822337
vn 0.966857 0.224165 0.122222
vn 0.952941 0.131615 -0.273095
vn 0.302173 0.018279 -0.953078
vn 0.722553 0.269004 -0.636831
vn 0.441742 0.358646 0.822337
vn 0.952941 0.131615 -0.273095
vn 0.722553 0.269004 -0.636831
vn 0.966857 0.224165 0.122222
vn 0.302173 0.018279 -0.953078
vn -0.053601 0.010822 -0.998504
vn 0.722553 0.269004 -0.636831
vn -0.987998 0.114346 -0.103846
vn -0.369516 0.026450 -0.928848
vn -0.402165 -0.045077 -0.914457
vn -0.993941 0.018770 -0.108298
vn -0.369516 0.026450 -0.928848
vn -0.053601 0.010822 -0.998504
vn -0.402165 -0.045077 -0.914457
vn -0.116054 0.335881 0.934728
vn -0.977530 0.155158 0.142691
vn -0.966904 0.128839 0.220221
vn -0.195192 0.282512 0.939195
vn -0.765335 0.128384 -0.630698
vn -0.327460 0.369923 0.869441
vn -0.463322 0.318619 -0.826931
vn -0.116054 0.335881 0.934728
vn 0.441742 0.358646 0.822337
vn 0.150824 0.474891 0.867024
vn -0.327460 0.369923 0.869441
vn 0.722553 0.269004 -0.636831
vn 0.150824 0.474891 0.867024
vn 0.966857 0.224165 0.122222
vn -0.463322 0.318619 -0.826931
vn -0.353522 0.827079 0.436992
vn 0.722553 0.269004 -0.636831
vn 0.722553 0.269004 -0.636831
vn -0.353522 0.827079 0.436992
vn 0.150824 0.474891 0.867024
vn -0.987998 0.114346 -0.103846
vn -0.977530 0.155158 0.142691
vn -0.327460 0.369923 0.869441
vn -0.765335 0.128384 -0.630698
vn -0.765335 0.128384 -0.630698
vn 0.722553 0.269004 -0.636831
vn -0.053601 0.010822 -0.998504
vn -0.369516 0.026450 -0.928848
vn -0.395517 -0.912240 0.106699
vn 0.801795 -0.509208 -0.312781
vn 0.332839 -0.907877 0.254906
s off
g RockA_mesh
usemtl initialShadingGroup
f 18/1/1 11/2/2 22/3/3 27/4/4
f 28/5/5 29/6/6 3/7/7
f 3/8/8 29/9/9 5/10/10
f 12/11/11 23/12/12 20/13/13 8/14/14
f 13/15/15 8/14/16 2/16/17
f 8/14/18 20/13/19 2/16/20
f 2/16/21 20/13/22 11/17/23
f 20/13/24 22/18/25 11/17/26
f 7/19/27 9/20/28 19/21/29
f 8/22/30 9/23/31 12/24/32
f 12/24/33 9/23/34 14/25/35
f 9/23/36 17/26/37 14/25/38
f 11/2/39 10/27/40 13/28/41 2/29/42
f 16/30/43 26/31/44 14/32/45
f 26/31/46 23/33/47 14/32/48
f 23/33/49 12/34/50 14/32/51
f 9/23/52 13/35/53 1/36/54
f 15/37/55 25/38/56 24/39/57
f 17/40/58 16/30/59 14/32/60
f 7/41/61 17/26/62 9/23/63
f 7/19/64 16/42/65 17/43/66
f 5/44/67 6/45/68 15/46/69
f 18/1/70 19/47/71 9/48/72 1/49/73
f 1/49/74 10/27/75 11/2/76 18/1/77
f 3/7/78 21/50/79 27/4/80
f 7/19/81 19/21/82 21/51/83 24/39/84
f 1/49/85 13/28/86 10/27/87
f 28/5/88 22/3/89 4/52/90
f 20/13/91 23/12/92 6/53/93
f 22/18/94 20/13/95 6/53/96 4/54/97
f 23/33/98 26/31/99 6/45/100
f 24/39/101 25/38/102 16/42/103 7/19/104
f 25/55/105 26/31/106 16/30/107
f 27/4/108 21/50/109 19/47/110 18/1/111
f 15/37/112 3/8/113 5/10/114
f 27/4/115 22/3/116 28/5/117 3/7/118
f 6/53/119 28/56/120 4/54/121
f 5/57/122 29/58/123 6/59/124
f 6/59/125 29/58/126 28/60/127
f 24/39/128 21/51/129 3/8/130 15/37/131
f 15/46/132 6/45/133 26/31/134 25/55/135
f 9/23/136 8/22/137 13/35/138
